<svg width="100" height="98" viewBox="0 0 100 98" fill="none" xmlns="http://www.w3.org/2000/svg">
<path d="M50.0084 8.16667C73.0001 8.16667 91.6667 26.46 91.6667 48.9918C91.6667 71.5196 73.0001 89.8129 50.0084 89.8129C27.0209 89.8129 8.35425 71.5196 8.35425 48.9918C8.35425 26.46 27.0209 8.16667 50.0084 8.16667V8.16667ZM50.0084 14.2917C30.4667 14.2917 14.6042 29.841 14.6042 48.9918C14.6042 68.1427 30.4667 83.6879 50.0084 83.6879C69.5501 83.6879 85.4167 68.1427 85.4167 48.9918C85.4167 29.841 69.5501 14.2917 50.0084 14.2917V14.2917ZM46.8959 45.9375H32.3126C30.5876 45.9375 29.1876 47.3095 29.1876 49C29.1876 50.6905 30.5876 52.0625 32.3126 52.0625H46.8959V66.3542C46.8959 68.0447 48.2959 69.4167 50.0209 69.4167C51.7459 69.4167 53.1459 68.0447 53.1459 66.3542V52.0625H67.7292C69.4542 52.0625 70.8542 50.6905 70.8542 49C70.8542 47.3095 69.4542 45.9375 67.7292 45.9375H53.1459V31.6458C53.1459 29.9553 51.7459 28.5833 50.0209 28.5833C48.2959 28.5833 46.8959 29.9553 46.8959 31.6458V45.9375Z" fill="white"/>
</svg>
