<svg width="30" height="32" viewBox="0 0 30 32" fill="none" xmlns="http://www.w3.org/2000/svg">
<g clip-path="url(#clip0_104_5)">
<path d="M15 0.740723C6.71625 0.740723 0 7.58134 0 16.0185C0 24.4556 6.71625 31.2963 15 31.2963C23.2838 31.2963 30 24.4556 30 16.0185C30 7.58134 23.2838 0.740723 15 0.740723ZM15 28.75C11.0963 28.75 7.6075 26.9154 5.31375 24.0521C5.6375 23.3034 6.2925 22.7853 7.6475 22.4657C10.4525 21.8062 13.2212 21.2168 11.8888 18.7163C7.945 11.3066 10.765 7.10646 15 7.10646C19.1525 7.10646 22.0425 11.1513 18.1112 18.7163C16.8175 21.2015 19.4862 21.7922 22.3525 22.4657C23.705 22.784 24.365 23.2996 24.6912 24.0457C22.3962 26.9141 18.9062 28.75 15 28.75Z" fill="#161515"/>
</g>
<defs>
<clipPath id="clip0_104_5">
<rect width="30" height="30.5555" fill="white" transform="translate(0 0.740723)"/>
</clipPath>
</defs>
</svg>
